<?xml version="1.0" encoding="UTF-8"?> <svg xmlns="http://www.w3.org/2000/svg" width="806" height="346" viewBox="0 0 806 346" fill="none"><g clip-path="url(#clip0_5909_8888)"><path d="M88.9941 249.027C88.9941 248.692 89.196 247.352 89.6671 245.076C90.8111 239.92 91.4168 234.83 91.4168 229.808V157.688C91.4168 154.742 91.2149 152.331 90.8111 150.59C90.4073 148.849 89.8016 146.706 88.9941 144.296C87.9847 141.751 87.4463 139.608 87.4463 137.8C87.4463 135.724 88.2538 134.184 89.8016 133.18C91.3495 132.175 93.7721 131.238 96.935 130.434C100.367 129.497 103.261 129.028 105.549 129.028C106.828 129.028 107.904 129.43 108.846 130.3C109.789 131.171 110.26 132.242 110.26 133.648V138.939C110.26 139.608 110.26 140.077 110.462 140.345C110.596 140.613 110.865 140.68 111.336 140.68C111.942 140.68 112.951 139.943 114.432 138.47C117.393 135.858 120.623 133.581 123.988 131.773C127.353 129.965 131.727 129.028 137.043 129.028C144.042 129.028 150.233 130.903 155.684 134.586C161.068 138.336 165.308 143.492 168.336 150.188C171.364 156.885 172.912 164.519 172.912 173.09C172.912 181.661 171.163 189.831 167.663 196.795C164.164 203.759 159.251 209.25 152.925 213.201C146.599 217.152 139.399 219.094 131.391 219.094C128.497 219.094 125.94 218.759 123.652 218.156C121.363 217.554 118.874 216.683 116.249 215.679C114.297 214.875 113.086 214.473 112.615 214.473C111.807 214.473 111.202 214.741 110.865 215.344C110.529 215.947 110.327 216.884 110.327 218.29V229.808C110.327 234.83 111.202 239.92 112.884 245.076C113.49 247.018 113.759 248.357 113.759 249.027C113.759 251.236 112.817 252.843 110.933 253.982C109.048 255.12 105.684 255.723 100.838 255.723C93.0319 255.723 89.1287 253.513 89.1287 249.027H88.9941ZM146.936 197.866C150.974 192.041 152.993 183.67 152.993 172.822C152.993 162.845 151.176 155.144 147.676 149.72C144.11 144.296 139.197 141.55 132.871 141.55C126.545 141.55 121.027 144.095 116.72 149.117C112.413 154.139 110.26 160.702 110.26 168.67V193.715C110.26 195.657 111.067 197.666 112.75 199.607C114.432 201.616 116.72 203.29 119.748 204.563C122.777 205.835 126.209 206.505 130.112 206.505C137.38 206.505 142.965 203.558 147.003 197.733L146.936 197.866Z" fill="black"></path><path d="M247.743 134.726C254.136 138.476 259.116 143.766 262.683 150.529C266.249 157.292 267.999 164.993 267.999 173.698C267.999 182.404 266.182 190.372 262.683 197.203C259.116 204.1 254.136 209.457 247.676 213.341C241.215 217.225 233.947 219.167 225.737 219.167C217.527 219.167 210.124 217.225 203.664 213.408C197.204 209.591 192.224 204.234 188.657 197.47C185.09 190.64 183.341 182.939 183.341 174.234C183.341 165.529 185.158 157.761 188.792 150.998C192.426 144.167 197.473 138.81 203.866 134.927C210.326 131.043 217.594 129.101 225.804 129.101C234.014 129.101 241.417 130.976 247.81 134.793L247.743 134.726ZM242.292 197.872C246.195 192.046 248.147 183.877 248.147 173.297C248.147 162.716 246.195 155.283 242.359 149.792C238.523 144.301 232.938 141.556 225.737 141.556C218.536 141.556 212.951 144.502 209.115 150.328C205.279 156.154 203.327 164.257 203.327 174.703C203.327 185.149 205.279 192.783 209.115 198.274C212.951 203.832 218.536 206.577 225.737 206.577C232.938 206.577 238.389 203.631 242.292 197.805V197.872Z" fill="black"></path><path d="M281.321 249.027C281.321 248.692 281.522 247.352 281.993 245.076C283.138 239.92 283.743 234.83 283.743 229.808V157.688C283.743 154.742 283.541 152.331 283.138 150.59C282.734 148.849 282.128 146.706 281.321 144.296C280.311 141.751 279.773 139.608 279.773 137.8C279.773 135.724 280.58 134.184 282.128 133.18C283.676 132.175 286.099 131.238 289.261 130.434C292.694 129.497 295.587 129.028 297.875 129.028C299.154 129.028 300.231 129.43 301.173 130.3C302.115 131.171 302.586 132.242 302.586 133.648V138.939C302.586 139.608 302.586 140.077 302.788 140.345C302.923 140.613 303.192 140.68 303.663 140.68C304.268 140.68 305.278 139.943 306.758 138.47C309.719 135.858 312.95 133.581 316.314 131.773C319.679 129.965 324.053 129.028 329.37 129.028C336.369 129.028 342.56 130.903 348.011 134.586C353.395 138.336 357.634 143.492 360.662 150.188C363.691 156.885 365.239 164.519 365.239 173.09C365.239 181.661 363.489 189.831 359.99 196.795C356.49 203.759 351.578 209.25 345.252 213.201C338.926 217.152 331.725 219.094 323.717 219.094C320.823 219.094 318.266 218.759 315.978 218.156C313.69 217.554 311.2 216.683 308.575 215.679C306.624 214.875 305.412 214.473 304.941 214.473C304.134 214.473 303.528 214.741 303.192 215.344C302.855 215.947 302.653 216.884 302.653 218.29V229.808C302.653 234.83 303.528 239.92 305.211 245.076C305.816 247.018 306.085 248.357 306.085 249.027C306.085 251.236 305.143 252.843 303.259 253.982C301.375 255.12 298.01 255.723 293.165 255.723C285.358 255.723 281.455 253.513 281.455 249.027H281.321ZM339.262 197.866C343.3 192.041 345.319 183.67 345.319 172.822C345.319 162.845 343.502 155.144 340.003 149.72C336.436 144.296 331.523 141.55 325.198 141.55C318.872 141.55 313.353 144.095 309.046 149.117C304.74 154.139 302.586 160.702 302.586 168.67V193.715C302.586 195.657 303.394 197.666 305.076 199.607C306.758 201.616 309.046 203.29 312.075 204.563C315.103 205.835 318.535 206.505 322.438 206.505C329.706 206.505 335.292 203.558 339.33 197.733L339.262 197.866Z" fill="black"></path><path d="M381.583 216.22C379.766 215.015 378.891 213.341 378.891 211.131C378.891 210.127 379.093 208.854 379.429 207.381C380.573 202.225 381.179 197.069 381.179 191.912V157.761C381.179 152.94 380.371 148.52 378.756 144.368C377.814 141.623 377.343 139.48 377.343 137.873C377.343 135.797 378.151 134.257 379.698 133.252C381.246 132.248 383.669 131.311 386.832 130.507C390.264 129.569 393.09 129.101 395.311 129.101C396.724 129.101 397.801 129.502 398.676 130.373C399.551 131.244 399.954 132.315 399.954 133.721V138.543C399.954 140.15 400.426 140.953 401.368 140.953C401.704 140.953 402.983 139.815 405.271 137.605C407.492 135.395 410.183 133.386 413.279 131.712C416.375 129.971 420.009 129.168 424.114 129.168C435.016 129.168 442.553 133.453 446.725 142.025C447.062 142.627 447.398 143.029 447.667 143.431C447.937 143.766 448.273 143.967 448.609 143.967C448.946 143.967 449.888 143.096 451.369 141.422C454.33 138.007 457.694 135.127 461.261 132.784C464.895 130.44 469.539 129.235 475.326 129.235C484.411 129.235 491.41 132.181 496.39 138.141C501.302 144.101 503.792 152.471 503.792 163.386V192.046C503.792 197.203 504.398 202.359 505.542 207.515C506.013 209.591 506.215 210.863 506.215 211.265C506.215 215.818 502.312 218.162 494.505 218.162C489.66 218.162 486.295 217.559 484.411 216.421C482.527 215.283 481.585 213.542 481.585 211.265C481.585 210.461 481.854 209.189 482.459 207.515C484.209 202.359 485.017 197.203 485.017 192.046V164.591C485.017 156.824 483.873 151.065 481.585 147.315C479.296 143.632 475.662 141.757 470.75 141.757C467.385 141.757 464.289 142.962 461.463 145.373C458.569 147.784 456.281 150.998 454.532 155.083C452.782 159.167 451.974 163.52 451.974 168.207V192.046C451.974 197.671 452.916 202.828 454.733 207.515C455.272 209.256 455.608 210.528 455.608 211.265C455.608 213.542 454.666 215.283 452.782 216.421C450.898 217.559 447.533 218.162 442.687 218.162C437.842 218.162 434.477 217.559 432.593 216.421C430.709 215.283 429.767 213.542 429.767 211.265C429.767 210.461 430.036 209.189 430.641 207.515C432.391 202.359 433.199 197.203 433.199 192.046V164.591C433.199 156.69 432.122 150.931 429.901 147.248C427.68 143.565 424.114 141.757 419.067 141.757C415.702 141.757 412.606 142.962 409.645 145.44C406.684 147.917 404.396 151.199 402.646 155.417C400.897 159.636 400.089 164.056 400.089 168.877V192.046C400.089 197.671 401.031 202.828 402.848 207.515C403.454 209.256 403.723 210.528 403.723 211.265C403.723 213.542 402.781 215.283 400.897 216.421C399.012 217.559 395.648 218.162 390.802 218.162C386.563 218.162 383.534 217.559 381.717 216.354L381.583 216.22Z" fill="black"></path><path d="M538.522 213.541C532.062 209.791 527.082 204.434 523.583 197.47C520.083 190.573 518.334 182.403 518.334 173.029C518.334 164.189 520.016 156.489 523.314 149.859C526.678 143.23 531.389 138.074 537.446 134.525C543.502 130.975 550.636 129.1 558.846 129.1C570.488 129.1 579.708 132.516 586.639 139.413C593.503 146.31 597.003 155.618 597.003 167.404C597.003 173.096 594.782 175.975 590.273 175.975H539.397C538.724 175.975 538.388 176.377 538.388 177.18C538.388 184.948 540.743 191.31 545.521 196.198C550.299 201.153 556.491 203.564 564.095 203.564C567.527 203.564 570.69 203.162 573.516 202.359C576.343 201.555 579.371 200.216 582.601 198.408C584.755 197.269 586.504 196.667 587.783 196.667C588.927 196.667 590.004 197.068 591.081 197.872C592.023 198.676 592.494 199.747 592.494 201.153C592.494 203.229 591.821 205.104 590.408 206.845C587.177 210.863 583.072 213.876 578.093 216.019C573.113 218.162 567.46 219.166 561.269 219.166C552.655 219.166 545.117 217.291 538.657 213.474L538.522 213.541ZM577.15 162.247C577.15 155.819 575.468 150.797 572.17 147.114C568.873 143.431 564.364 141.623 558.711 141.623C552.722 141.623 547.877 143.565 544.041 147.515C540.272 151.466 538.321 156.355 538.321 162.18C538.321 162.984 538.657 163.386 539.33 163.386H576.074C576.747 163.386 577.083 162.984 577.083 162.18L577.15 162.247Z" fill="black"></path><path d="M619.161 215.952C614.989 213.81 611.692 210.796 609.336 207.046C606.981 203.296 605.77 199.011 605.77 194.323C605.77 176.578 619.161 167.739 645.945 167.739H655.232C656.847 167.739 657.991 167.337 658.597 166.533C659.203 165.73 659.539 164.39 659.539 162.582C659.539 148.654 654.425 141.623 644.196 141.623C640.831 141.623 638.072 142.293 635.918 143.565C633.765 144.837 631.342 146.779 628.852 149.324C626.9 151.266 625.218 152.739 623.738 153.676C622.324 154.681 620.642 155.15 618.825 155.15C616.2 155.15 614.114 154.413 612.701 153.007C611.288 151.6 610.548 149.859 610.548 147.784C610.548 145.976 611.153 144.101 612.365 142.226C613.576 140.351 615.191 138.61 617.277 137.002C624.411 131.712 633.428 129.101 644.33 129.101C655.232 129.101 663.51 131.846 669.432 137.404C675.354 142.962 678.315 150.931 678.315 161.377V199.145C678.315 201.421 678.651 203.028 679.324 203.966C679.997 204.903 681.141 205.305 682.756 205.305C684.035 205.305 685.044 205.707 685.852 206.51C686.659 207.314 687.063 208.319 687.063 209.591C687.063 212.537 685.919 214.881 683.631 216.622C681.343 218.363 678.315 219.167 674.479 219.167C671.383 219.167 668.691 218.363 666.336 216.756C663.981 215.149 662.5 212.939 661.693 210.06C661.221 208.787 660.548 208.185 659.606 208.185C659.135 208.185 658.53 208.452 657.722 208.988C656.914 209.524 655.703 210.461 654.088 211.801C648.704 216.689 641.638 219.167 632.89 219.167C627.843 219.167 623.199 218.095 619.027 215.885L619.161 215.952ZM648.974 203.564C652.137 201.488 654.694 198.743 656.645 195.328C658.597 191.912 659.606 188.229 659.606 184.346V182.471C659.606 180.328 658.597 179.189 656.511 179.189H647.358C639.619 179.189 634.101 180.261 630.736 182.337C627.372 184.48 625.622 188.029 625.622 193.051C625.622 197.069 626.9 200.283 629.39 202.828C631.88 205.372 635.111 206.577 638.879 206.577C642.446 206.577 645.811 205.573 648.974 203.497V203.564Z" fill="black"></path><path d="M720.505 207.375C720.976 209.451 721.178 210.724 721.178 211.125C721.178 215.679 717.275 218.023 709.468 218.023C705.229 218.023 702.2 217.42 700.383 216.215C698.566 215.009 697.692 213.335 697.692 211.125C697.692 210.121 697.894 208.849 698.23 207.375C699.374 202.219 699.98 197.063 699.98 191.907V119.118C699.98 114.296 699.172 109.877 697.557 105.725C696.615 102.979 696.144 100.836 696.144 99.2294C696.144 97.1535 696.951 95.6133 698.499 94.6089C700.047 93.6044 702.47 92.6669 705.633 91.8634C709.065 90.9259 711.891 90.4572 714.112 90.4572C715.525 90.4572 716.602 90.8589 717.477 91.7295C718.352 92.6 718.755 93.6714 718.755 95.0776V191.907C718.755 197.063 719.361 202.219 720.505 207.375Z" fill="black"></path><ellipse cx="558.746" cy="105.601" rx="9.79376" ry="9.79376" fill="black"></ellipse></g><defs><clipPath id="clip0_5909_8888"><rect width="633.726" height="165.266" fill="white" transform="translate(87.4463 90.4572)"></rect></clipPath></defs></svg> 